<svg xmlns="http://www.w3.org/2000/svg" viewBox="0 0 88 88" role="img" aria-labelledby="title">
  <title id="title">Acessibilidade em Libras</title>
  <defs>
    <linearGradient id="blue" x1="12" y1="4" x2="74" y2="84" gradientUnits="userSpaceOnUse">
      <stop stop-color="#3f9bff"/>
      <stop offset="1" stop-color="#1267cf"/>
    </linearGradient>
  </defs>
  <rect width="88" height="88" rx="18" fill="url(#blue)"/>
  <g fill="none" stroke="#fff" stroke-width="4" stroke-linecap="round" stroke-linejoin="round">
    <path d="M41 45c-3-4-7-10-9-15l-5-12m14 27-4-18-1-11m5 29 1-21 1-10m-2 31 8-18 4-9m-12 27 13-11 6-4c3-2 6 2 4 5l-7 8c-2 3-3 6-3 10 0 9-7 16-16 16-7 0-12-3-16-8l-8-10c-2-3 2-7 5-5l7 5-10-18"/>
    <path d="M48 45c3-4 7-10 9-15l5-12m-14 27 4-18 1-11m-5 29-1-21-1-10m2 31-8-18-4-9m12 27-13-11-6-4c-3-2-6 2-4 5l7 8c2 3 3 6 3 10 0 9 7 16 16 16 7 0 12-3 16-8l8-10c2-3-2-7-5-5l-7 5 10-18" opacity=".96"/>
    <path d="M16 28l-4-4m60 4 4-4M13 38H8m67 0h5" stroke-width="2.5"/>
  </g>
</svg>
