<svg xmlns="http://www.w3.org/2000/svg" viewBox="0 0 88 88" role="img" aria-labelledby="title">
  <title id="title">Acessibilidade em Libras</title>
  <defs>
    <linearGradient id="blue" x1="12" y1="4" x2="74" y2="84" gradientUnits="userSpaceOnUse">
      <stop stop-color="#3f9bff"/>
      <stop offset="1" stop-color="#1267cf"/>
    </linearGradient>
  </defs>
  <rect width="88" height="88" rx="18" fill="url(#blue)"/>
  <g fill="#fff">
    <rect x="20" y="28" width="8" height="27" rx="4" transform="rotate(-28 24 41.5)"/>
    <rect x="31" y="17" width="8" height="34" rx="4" transform="rotate(-10 35 34)"/>
    <rect x="41" y="12" width="8" height="38" rx="4"/>
    <rect x="51" y="17" width="8" height="34" rx="4" transform="rotate(9 55 34)"/>
    <rect x="61" y="27" width="8" height="27" rx="4" transform="rotate(23 65 40.5)"/>
    <path d="M26 43c4-3 8-2 12 1l5 4 6-3c5-3 11-1 14 4l3 5c2 4 2 9 0 14l-4 9c-2 4-6 7-11 7H38c-6 0-11-3-14-8l-7-14c-2-4 1-8 5-8 2 0 3 1 5 3l5 5z"/>
  </g>
</svg>
