<svg xmlns="http://www.w3.org/2000/svg" viewBox="0 0 88 88" role="img" aria-labelledby="title">
  <title id="title">Acessibilidade em Libras</title>
  <defs>
    <linearGradient id="blue" x1="12" y1="4" x2="74" y2="84" gradientUnits="userSpaceOnUse">
      <stop stop-color="#3f9bff"/>
      <stop offset="1" stop-color="#1267cf"/>
    </linearGradient>
  </defs>
  <rect width="88" height="88" rx="18" fill="url(#blue)"/>
  <path fill="#fff" d="M31 72c-7-2-12-7-15-14l-5-12c-1-3 3-5 5-2l7 7-8-23c-1-3 4-5 6-2l7 15-5-24c-1-4 5-5 6-1l5 22-2-26c0-4 6-4 6 0l2 25 2-20c1-4 7-3 6 1l-3 23 7-13c2-3 7 0 5 3l-10 21c-2 5-2 9-1 14 2 10-4 20-14 23-4 1-8 1-12 0z"/>
</svg>
