<svg xmlns="http://www.w3.org/2000/svg" viewBox="0 0 88 88" role="img" aria-labelledby="title">
  <title id="title">Acessibilidade em Libras</title>
  <defs>
    <linearGradient id="blue" x1="12" y1="4" x2="74" y2="84" gradientUnits="userSpaceOnUse">
      <stop stop-color="#3f9bff"/>
      <stop offset="1" stop-color="#1267cf"/>
    </linearGradient>
  </defs>
  <rect width="88" height="88" rx="18" fill="url(#blue)"/>
  <g fill="#fff" transform="rotate(-18 44 44)">
    <path d="M17 49c-4-5-3-10 1-12 3-2 5 0 7 3l4 5-7-17c-1-3 3-5 5-2l6 12-4-19c-1-3 4-4 5-1l5 18-1-20c0-3 5-3 5 0l1 19 3-15c1-3 5-2 5 1l-3 18 4-8c2-3 6-1 5 2l-6 14c-2 5-2 9 0 13 3 7-1 15-9 18-9 4-18 0-22-8z"/>
    <path d="M70 49c4-5 3-10-1-12-3-2-5 0-7 3l-4 5 7-17c1-3-3-5-5-2l-6 12 4-19c1-3-4-4-5-1l-5 18 1-20c0-3-5-3-5 0l-1 19-3-15c-1-3-5-2-5 1l3 18-4-8c-2-3-6-1-5 2l6 14c2 5 2 9 0 13-3 7 1 15 9 18 9 4 18 0 22-8z" opacity=".98"/>
  </g>
</svg>
